<svg width="12" height="10" viewBox="0 0 12 10" fill="none" xmlns="http://www.w3.org/2000/svg">
<path fill-rule="evenodd" clip-rule="evenodd" d="M11.3565 0.746757C11.5144 0.904955 11.6032 1.11941 11.6032 1.34301C11.6032 1.5666 11.5144 1.78105 11.3565 1.93926L5.45021 8.97051C5.292 9.12846 5.07755 9.21722 4.85396 9.21722C4.63036 9.21722 4.41591 9.12846 4.25771 8.97051L0.601458 5.31426C0.452418 5.1543 0.371283 4.94276 0.375131 4.72416C0.37899 4.50557 0.467538 4.29702 0.622136 4.14242C0.776722 3.98784 0.985286 3.89929 1.20387 3.89543C1.42246 3.89157 1.63401 3.97272 1.79396 4.12176L4.85396 7.18176L10.164 0.746757C10.3221 0.588751 10.5366 0.5 10.7602 0.5C10.9837 0.5 11.1983 0.588751 11.3565 0.746757Z" fill="white"/>
</svg>
