<svg width="18" height="16" viewBox="0 0 18 16" fill="none" xmlns="http://www.w3.org/2000/svg">
<path d="M8.47999 15.73C8.28296 15.7304 8.09328 15.6552 7.94999 15.52L0.949992 8.52C0.657539 8.22718 0.657539 7.75282 0.949992 7.46L7.94999 0.460002C8.24281 0.167548 8.71717 0.167548 9.00999 0.460002C9.15294 0.599289 9.23356 0.790414 9.23356 0.990002C9.23356 1.18959 9.15294 1.38071 9.00999 1.52L2.54999 8L8.99999 14.45C9.14294 14.5893 9.22356 14.7804 9.22356 14.98C9.22356 15.1796 9.14294 15.3707 8.99999 15.51C8.86452 15.6521 8.67628 15.7317 8.47999 15.73Z" fill="#1F1F1F"/>
<path d="M16.52 8.75H1.52002C1.10581 8.75 0.77002 8.41421 0.77002 8C0.77002 7.58579 1.10581 7.25 1.52002 7.25H16.52C16.9342 7.25 17.27 7.58579 17.27 8C17.27 8.41421 16.9342 8.75 16.52 8.75Z" fill="#1F1F1F"/>
<path d="M8.47999 15.73C8.28296 15.7304 8.09328 15.6552 7.94999 15.52L0.949992 8.52C0.657539 8.22718 0.657539 7.75282 0.949992 7.46L7.94999 0.460002C8.24281 0.167548 8.71717 0.167548 9.00999 0.460002C9.15294 0.599289 9.23356 0.790414 9.23356 0.990002C9.23356 1.18959 9.15294 1.38071 9.00999 1.52L2.54999 8L8.99999 14.45C9.14294 14.5893 9.22356 14.7804 9.22356 14.98C9.22356 15.1796 9.14294 15.3707 8.99999 15.51C8.86452 15.6521 8.67628 15.7317 8.47999 15.73Z" fill="#1F1F1F"/>
<path d="M16.52 8.75H1.52002C1.10581 8.75 0.77002 8.41421 0.77002 8C0.77002 7.58579 1.10581 7.25 1.52002 7.25H16.52C16.9342 7.25 17.27 7.58579 17.27 8C17.27 8.41421 16.9342 8.75 16.52 8.75Z" fill="#1F1F1F"/>
</svg>
